<?xml version="1.0" encoding="UTF-8" standalone="no"?>
<!-- Created with Inkscape (http://www.inkscape.org/) -->

<svg
   xmlns:dc="http://purl.org/dc/elements/1.1/"
   xmlns:cc="http://creativecommons.org/ns#"
   xmlns:rdf="http://www.w3.org/1999/02/22-rdf-syntax-ns#"
   xmlns:svg="http://www.w3.org/2000/svg"
   xmlns="http://www.w3.org/2000/svg"
   xmlns:sodipodi="http://sodipodi.sourceforge.net/DTD/sodipodi-0.dtd"
   xmlns:inkscape="http://www.inkscape.org/namespaces/inkscape"
   width="2048"
   height="502.47"
   id="svg4216"
   version="1.1"
   inkscape:version="0.48.0 r9654"
   sodipodi:docname="bl.svg">
  <defs
     id="defs4218" />
  <sodipodi:namedview
     id="base"
     pagecolor="#ffffff"
     bordercolor="#666666"
     borderopacity="1.0"
     inkscape:pageopacity="0.0"
     inkscape:pageshadow="2"
     inkscape:zoom="0.48193359"
     inkscape:cx="775.00302"
     inkscape:cy="312.27696"
     inkscape:document-units="px"
     inkscape:current-layer="layer1"
     showgrid="false"
     showguides="true"
     inkscape:guide-bbox="true"
     inkscape:window-width="1148"
     inkscape:window-height="706"
     inkscape:window-x="1631"
     inkscape:window-y="208"
     inkscape:window-maximized="0">
    <sodipodi:guide
       orientation="1,0"
       position="910,482.85714"
       id="guide4231" />
    <sodipodi:guide
       orientation="1,0"
       position="713,845.71429"
       id="guide4233" />
  </sodipodi:namedview>
  <metadata
     id="metadata4221">
    <rdf:RDF>
      <cc:Work
         rdf:about="">
        <dc:format>image/svg+xml</dc:format>
        <dc:type
           rdf:resource="http://purl.org/dc/dcmitype/StillImage" />
        <dc:title />
      </cc:Work>
    </rdf:RDF>
  </metadata>
  <g
     inkscape:label="Layer 1"
     inkscape:groupmode="layer"
     id="layer1"
     transform="translate(0,-549.89218)">
    <path
       style="fill:#000000;stroke:none"
       d="M 713,0 C 483.1631,40.30517 326.09325,182.58105 412.34375,341.71875 544.42525,459.93407 714.3066,445.1233 909.375,290.375 l 0.0312,-219.40625 C 1055.0331,62.35424 1302.5079,318.35408 713,491.1875 l 0,11.28125 197.625,0 c 165.0748,-47.53002 252.208,-113.08332 287.2188,-181.15625 90.8619,-8.15282 190.1434,-10.49877 335.75,29 C 1568.5288,308.53347 1644.3768,117.90972 1619.5,2.96875 1463.7237,303.42475 1313.0146,203.80742 1212.9688,279.125 1242.5021,138.1537 1070.3021,0 909.40625,0 z m 0,72.21875 0,249.53125 C 639.4316,337.8184 568.2892,348.46415 529.125,288.84375 486.4693,156.24555 594.0441,103.8166 713,72.21875 z"
       transform="translate(0,549.89218)"
       id="path4200"
       inkscape:connector-curvature="0"
       sodipodi:nodetypes="cccccccccccsccccc" />
  </g>
</svg>
