<?xml version="1.0" encoding="UTF-8" standalone="no"?>
<!-- Created with Inkscape (http://www.inkscape.org/) -->

<svg
   xmlns:dc="http://purl.org/dc/elements/1.1/"
   xmlns:cc="http://creativecommons.org/ns#"
   xmlns:rdf="http://www.w3.org/1999/02/22-rdf-syntax-ns#"
   xmlns:svg="http://www.w3.org/2000/svg"
   xmlns="http://www.w3.org/2000/svg"
   xmlns:sodipodi="http://sodipodi.sourceforge.net/DTD/sodipodi-0.dtd"
   xmlns:inkscape="http://www.inkscape.org/namespaces/inkscape"
   width="2048"
   height="736.08002"
   id="svg4160"
   version="1.1"
   inkscape:version="0.48.0 r9654"
   sodipodi:docname="New document 18">
  <defs
     id="defs4162" />
  <sodipodi:namedview
     id="base"
     pagecolor="#ffffff"
     bordercolor="#666666"
     borderopacity="1.0"
     inkscape:pageopacity="0.0"
     inkscape:pageshadow="2"
     inkscape:zoom="0.58789062"
     inkscape:cx="1024"
     inkscape:cy="368.04001"
     inkscape:document-units="px"
     inkscape:current-layer="layer1"
     showgrid="false"
     showguides="true"
     inkscape:guide-bbox="true"
     inkscape:window-width="1365"
     inkscape:window-height="719"
     inkscape:window-x="1630"
     inkscape:window-y="194"
     inkscape:window-maximized="0">
    <sodipodi:guide
       orientation="1,0"
       position="910,960"
       id="guide4175" />
    <sodipodi:guide
       orientation="1,0"
       position="713,954.28571"
       id="guide4177" />
  </sodipodi:namedview>
  <metadata
     id="metadata4165">
    <rdf:RDF>
      <cc:Work
         rdf:about="">
        <dc:format>image/svg+xml</dc:format>
        <dc:type
           rdf:resource="http://purl.org/dc/dcmitype/StillImage" />
        <dc:title></dc:title>
      </cc:Work>
    </rdf:RDF>
  </metadata>
  <g
     inkscape:label="Layer 1"
     inkscape:groupmode="layer"
     id="layer1"
     transform="translate(0,-316.28218)">
    <path
       inkscape:connector-curvature="0"
       style="fill:#000000;stroke:none"
       d="m 713.00001,310.2762 c -295.82111,0 -443.15673,321.51443 -197.00036,407.21638 -166.42517,91.17605 -158.9258,347.50532 197.00036,327.79282 l 196.99999,0 0,-51.36939 C 1348.765,771.59563 1271.6769,350.3429 910,310.2762 l -196.99999,0 z m 0,69.57338 0,279.66515 C 649.18119,675.95635 588.7478,677.81054 542.43257,619.86537 464.07066,483.47186 571.05789,408.79241 713.00001,379.84958 z M 910,381.47049 c 256.4284,69.14321 184.8213,411.46953 0,533.02202 C 931.41798,682.89234 910,661.65429 802.39789,669.4894 911.57151,617.98861 923.40791,507.39578 910,381.47049 z m -196.99999,347.24359 0,249.99053 c -60.50763,4.8543 -115.89864,1.6307 -162.21346,-46.3824 C 475.73504,814.13742 569.4029,746.06954 713.00001,728.71408 z"
       id="path4104" />
  </g>
</svg>
