<?xml version="1.0" encoding="UTF-8" standalone="no"?>
<!-- Created with Inkscape (http://www.inkscape.org/) -->

<svg
   xmlns:dc="http://purl.org/dc/elements/1.1/"
   xmlns:cc="http://creativecommons.org/ns#"
   xmlns:rdf="http://www.w3.org/1999/02/22-rdf-syntax-ns#"
   xmlns:svg="http://www.w3.org/2000/svg"
   xmlns="http://www.w3.org/2000/svg"
   xmlns:sodipodi="http://sodipodi.sourceforge.net/DTD/sodipodi-0.dtd"
   xmlns:inkscape="http://www.inkscape.org/namespaces/inkscape"
   width="2048"
   height="530.62"
   id="svg4216"
   version="1.1"
   inkscape:version="0.48.0 r9654"
   sodipodi:docname="f.svg">
  <defs
     id="defs4218" />
  <sodipodi:namedview
     id="base"
     pagecolor="#ffffff"
     bordercolor="#666666"
     borderopacity="1.0"
     inkscape:pageopacity="0.0"
     inkscape:pageshadow="2"
     inkscape:zoom="0.48193359"
     inkscape:cx="1024"
     inkscape:cy="200"
     inkscape:document-units="px"
     inkscape:current-layer="layer1"
     showgrid="false"
     showguides="true"
     inkscape:guide-bbox="true"
     inkscape:window-width="1148"
     inkscape:window-height="706"
     inkscape:window-x="1631"
     inkscape:window-y="208"
     inkscape:window-maximized="0">
    <sodipodi:guide
       orientation="1,0"
       position="910,482.85714"
       id="guide4231" />
    <sodipodi:guide
       orientation="1,0"
       position="713,845.71429"
       id="guide4233" />
  </sodipodi:namedview>
  <metadata
     id="metadata4221">
    <rdf:RDF>
      <cc:Work
         rdf:about="">
        <dc:format>image/svg+xml</dc:format>
        <dc:type
           rdf:resource="http://purl.org/dc/dcmitype/StillImage" />
        <dc:title></dc:title>
      </cc:Work>
    </rdf:RDF>
  </metadata>
  <g
     inkscape:label="Layer 1"
     inkscape:groupmode="layer"
     id="layer1"
     transform="translate(0,-521.74218)">
    <path
       style="fill:#000000;stroke:none"
       d="M 714.20366,521.74101 C 484.36669,562.04618 327.28903,704.33591 413.53955,863.47366 545.62107,981.68896 714.87521,966.85516 909.9436,812.10684 L 910,592.69997 c 145.6269,-8.61451 393.7117,247.39332 -195.79618,420.22673 l 0,39.4355 L 910,1002.3771 c 538.9738,-155.18683 255.0984,-480.63609 0,-480.63609 z m 0,72.21487 0,249.54906 C 640.63521,859.57334 569.50303,870.2202 530.33878,810.59977 487.68311,678.00164 595.24771,625.55373 714.20366,593.95588 z"
       id="path4200"
       inkscape:connector-curvature="0"
       sodipodi:nodetypes="cccccccsccccc" />
    <path
       style="fill:#000000;stroke:none"
       d="m 392.52596,757.6945 2.64871,37.83855 c -32.82473,51.74927 -122.91194,63.87899 -148.70547,-11.35155 0.47185,-27.37084 -10.51193,-66.26277 -33.6763,-72.27164 68.90578,-36.37254 119.58903,-42.89778 130.16458,16.27059 7.33183,43.0277 24.07469,52.07117 49.56848,29.51405 z"
       id="path4291"
       inkscape:connector-curvature="0"
       sodipodi:nodetypes="cccccc" />
  </g>
</svg>
