<?xml version="1.0" encoding="UTF-8" standalone="no"?>
<!-- Created with Inkscape (http://www.inkscape.org/) -->

<svg
   xmlns:dc="http://purl.org/dc/elements/1.1/"
   xmlns:cc="http://creativecommons.org/ns#"
   xmlns:rdf="http://www.w3.org/1999/02/22-rdf-syntax-ns#"
   xmlns:svg="http://www.w3.org/2000/svg"
   xmlns="http://www.w3.org/2000/svg"
   xmlns:sodipodi="http://sodipodi.sourceforge.net/DTD/sodipodi-0.dtd"
   xmlns:inkscape="http://www.inkscape.org/namespaces/inkscape"
   width="2048"
   height="502.47"
   id="svg4216"
   version="1.1"
   inkscape:version="0.48.0 r9654"
   sodipodi:docname="f.svg">
  <defs
     id="defs4218" />
  <sodipodi:namedview
     id="base"
     pagecolor="#ffffff"
     bordercolor="#666666"
     borderopacity="1.0"
     inkscape:pageopacity="0.0"
     inkscape:pageshadow="2"
     inkscape:zoom="0.48193359"
     inkscape:cx="941.001"
     inkscape:cy="312.27696"
     inkscape:document-units="px"
     inkscape:current-layer="layer1"
     showgrid="false"
     showguides="true"
     inkscape:guide-bbox="true"
     inkscape:window-width="1148"
     inkscape:window-height="706"
     inkscape:window-x="1631"
     inkscape:window-y="208"
     inkscape:window-maximized="0">
    <sodipodi:guide
       orientation="1,0"
       position="910,482.85714"
       id="guide4231" />
    <sodipodi:guide
       orientation="1,0"
       position="713,845.71429"
       id="guide4233" />
  </sodipodi:namedview>
  <metadata
     id="metadata4221">
    <rdf:RDF>
      <cc:Work
         rdf:about="">
        <dc:format>image/svg+xml</dc:format>
        <dc:type
           rdf:resource="http://purl.org/dc/dcmitype/StillImage" />
        <dc:title></dc:title>
      </cc:Work>
    </rdf:RDF>
  </metadata>
  <g
     inkscape:label="Layer 1"
     inkscape:groupmode="layer"
     id="layer1"
     transform="translate(0,-549.89218)">
    <path
       style="fill:#000000;stroke:none"
       d="m 713.0002,549.89076 c -229.8369,40.30517 -386.9146,182.59492 -300.6641,341.73262 132.0815,118.21532 301.3357,103.3815 496.4041,-51.3668 l 0.056,-219.40686 C 1054.4231,612.23521 1302.5079,868.24308 713,1041.0765 l 0,11.2857 197,0 c 538.9738,-155.18682 253.8946,-502.47144 -1.2038,-502.47144 z m 0,72.21487 0,249.54905 c -73.5684,16.0684 -144.7006,26.7153 -183.8648,-32.9051 -42.6557,-132.5982 64.9089,-185.0461 183.8648,-216.64395 z"
       id="path4200"
       inkscape:connector-curvature="0"
       sodipodi:nodetypes="cccccccsccccc" />
    <path
       style="fill:#000000;stroke:none"
       d="m 392.52596,757.6945 2.64871,37.83855 c -32.82473,51.74927 -122.91194,63.87899 -148.70547,-11.35155 0.47185,-27.37084 -10.51193,-66.26277 -33.6763,-72.27164 68.90578,-36.37254 119.58903,-42.89778 130.16458,16.27059 7.33183,43.0277 24.07469,52.07117 49.56848,29.51405 z"
       id="path4291"
       inkscape:connector-curvature="0"
       sodipodi:nodetypes="cccccc" />
  </g>
</svg>
