<?xml version="1.0" encoding="UTF-8" standalone="no"?>
<!-- Created with Inkscape (http://www.inkscape.org/) -->

<svg
   xmlns:dc="http://purl.org/dc/elements/1.1/"
   xmlns:cc="http://creativecommons.org/ns#"
   xmlns:rdf="http://www.w3.org/1999/02/22-rdf-syntax-ns#"
   xmlns:svg="http://www.w3.org/2000/svg"
   xmlns="http://www.w3.org/2000/svg"
   xmlns:sodipodi="http://sodipodi.sourceforge.net/DTD/sodipodi-0.dtd"
   xmlns:inkscape="http://www.inkscape.org/namespaces/inkscape"
   width="2048"
   height="1523"
   id="svg2"
   version="1.1"
   inkscape:version="0.48.0 r9654"
   sodipodi:docname="fvs1.svg">
  <defs
     id="defs4" />
  <sodipodi:namedview
     id="base"
     pagecolor="#ffffff"
     bordercolor="#666666"
     borderopacity="1.0"
     inkscape:pageopacity="0.0"
     inkscape:pageshadow="2"
     inkscape:zoom="0.31665039"
     inkscape:cx="1172.9751"
     inkscape:cy="618.78197"
     inkscape:document-units="px"
     inkscape:current-layer="layer1"
     showgrid="false"
     showguides="true"
     inkscape:guide-bbox="true"
     inkscape:window-width="1458"
     inkscape:window-height="970"
     inkscape:window-x="1797"
     inkscape:window-y="55"
     inkscape:window-maximized="0">
    <sodipodi:guide
       orientation="1,0"
       position="910,348.57143"
       id="guide2985" />
    <sodipodi:guide
       orientation="1,0"
       position="713,417.14286"
       id="guide2987" />
  </sodipodi:namedview>
  <metadata
     id="metadata7">
    <rdf:RDF>
      <cc:Work
         rdf:about="">
        <dc:format>image/svg+xml</dc:format>
        <dc:type
           rdf:resource="http://purl.org/dc/dcmitype/StillImage" />
        <dc:title />
      </cc:Work>
    </rdf:RDF>
  </metadata>
  <g
     inkscape:label="Layer 1"
     inkscape:groupmode="layer"
     id="layer1"
     transform="translate(0,470.63784)">
    <path
       style="fill:#000000;fill-opacity:1;stroke:#000000;stroke-width:3.99709773"
       d="m 810,-460.68786 c -44.27665,28.07542 -9.43683,46.58145 -14.35589,68.22285 -5.10877,22.47548 -26.29077,33.79932 -14.22658,76.69414 17.1461,42.01825 -34.77736,48.33152 -31.36309,9.69994 39.84566,-40.58965 -24.56084,-40.37272 -3.87997,-81.54411 -32.08018,14.43228 -18.33635,35.11862 -10.2173,55.09561 -88.60278,167.38343 206.71993,178.76369 140.64898,10.86393 -20.31477,-26.83072 32.65765,-27.5121 -16.23123,-67.57621 15.24112,42.04642 -34.3994,39.16613 -10.28183,76.17682 19.35529,22.56007 -22.34821,51.57716 -31.94521,12.48059 4.65096,-30.67671 36.3372,-55.96478 -17.84782,-120.66718 -3.4336,-14.30224 0.15847,-29.46919 9.69994,-39.44638 z m -4.20337,298.36994 c -72.79702,0 -131.78971,59.12199 -131.78971,131.919102 0,72.797145 58.99269,131.789758 131.78971,131.789758 72.79727,0 131.78977,-58.992613 131.78977,-131.789758 0,-72.797112 -58.9925,-131.919102 -131.78977,-131.919102 z M 987.5088,29.676096 C 885.73818,164.06195 752.53135,203.75092 619.68729,32.456746 657.28409,258.349 939.571,272.39558 987.5088,29.676096 z m -642.65294,17.718549 0,68.287535 -273.79679,0 0,41.77438 14.87323,73.91348 38.08839,0 -14.87322,-74.30148 235.70839,0 0,68.28753 35.17842,0 0,-177.961445 -35.17842,0 z m 83.80741,194.386665 0,816.54039 169.74883,0 0,-816.54039 -169.74883,0 z m 583.61273,0 0,816.54039 169.7487,0 0,-816.54039 -169.7487,0 z m -47.9823,2.78065 -320.87389,0.38798 160.24287,99.52133 160.63102,-99.90931 z M 294.73954,301.5329 c -25.10903,2.4e-4 -45.11021,7.41016 -60.01028,22.30984 -15.03772,14.76218 -25.49523,37.75491 -31.42778,68.93421 l -5.17329,25.21982 c -4.27664,22.90183 -9.85024,38.54069 -16.74855,46.81834 -7.03588,8.13986 -17.38131,12.15731 -31.0398,12.15725 -16.27928,6e-5 -28.87055,-6.08648 -37.70039,-18.3652 -8.82931,-12.4165 -13.25629,-30.00376 -13.25658,-52.76765 2.9e-4,-13.10627 1.90127,-26.73205 5.62596,-40.80439 3.72524,-14.07193 9.35489,-29.01249 16.94255,-44.87836 l -40.73972,0 c -5.24227,15.72791 -9.21231,31.06935 -11.83393,46.10702 -2.62097,15.03806 -3.94433,29.81049 -3.94463,44.29637 3e-4,33.80086 7.87578,60.35417 23.60317,79.66878 15.72797,19.1768 37.28528,28.77649 64.60156,28.77647 23.59175,2e-5 41.98077,-6.95298 55.22495,-20.88719 13.24453,-13.93413 22.95632,-36.52597 29.16448,-67.70554 l 4.97929,-25.41381 c 4.27698,-21.24604 10.717,-36.47539 19.27054,-45.71902 8.55374,-9.38124 20.39067,-14.09703 35.56643,-14.09724 17.38329,2.1e-4 30.77634,6.49627 40.15771,19.46453 9.38146,12.96863 14.09726,31.35764 14.09724,55.22495 2e-5,15.72781 -2.41391,31.76755 -7.24261,48.04701 -4.82863,16.27961 -12.01442,32.88834 -21.53386,49.85766 l 43.00304,0 c 6.48423,-17.65912 11.43279,-34.73343 14.7439,-51.151 3.3111,-16.55537 4.97929,-32.12956 4.97929,-46.75367 0,-38.76722 -7.76341,-68.13533 -23.21517,-88.14007 -15.45173,-20.14225 -38.15568,-30.19887 -68.09352,-30.19911 z m 338.52766,79.79811 0,67.96421 342.4077,0 0,-67.96421 -342.4077,0 z M 800.42937,481.887 c -93.81071,0 -169.87815,76.06744 -169.87815,169.87816 0,93.81072 76.06744,169.87817 169.87815,169.87817 93.8107,0 169.87823,-76.06745 169.87823,-169.87817 0,-93.81072 -76.06753,-169.87816 -169.87823,-169.87816 z m 32.20383,9.11793 c 84.7577,41.93115 80.8738,135.64432 -27.3538,172.85281 -92.28228,31.46058 -71.99821,86.43666 -40.35171,143.88235 -74.51057,-70.86223 -66.90341,-128.16341 31.23377,-170.5895 70.79615,-27.75608 101.24193,-69.8285 36.47174,-146.14566 z m -31.9451,30.45779 c 20.193,0 36.60105,16.27873 36.60105,36.47175 0,20.19301 -16.40805,36.60109 -36.60105,36.60109 -20.19311,0 -36.47185,-16.40808 -36.47185,-36.60109 0,-20.19302 16.27874,-36.47175 36.47185,-36.47175 z m -729.62903,28.77647 0,43.4557 260.08753,98.09866 -260.08753,97.90468 0,43.64969 308.97521,-117.9512 0,-47.40034 L 71.05907,550.23919 z M 800.6881,705.3088 c 20.193,0 36.60105,16.27872 36.60105,36.47175 0,20.19299 -16.40805,36.60108 -36.60105,36.60108 -20.19311,0 -36.47185,-16.40809 -36.47185,-36.60108 0,-20.19303 16.27874,-36.47175 36.47185,-36.47175 z m -167.4209,147.69764 0,67.89953 342.4077,0 0,-67.89953 -342.4077,0 z m -562.20813,8.72995 0,177.50881 308.97521,0 0,-41.77446 -147.56832,0 0,-122.54244 -35.17844,0 0,122.54244 -91.05002,0 0,-135.73435 -35.17843,0 z m 893.23463,94.28335 -320.87389,0.38799 160.24287,99.52137 160.63102,-99.90936 z"
       id="rect3103"
       inkscape:connector-curvature="0" />
  </g>
</svg>
