<?xml version="1.0" encoding="UTF-8" standalone="no"?>
<!-- Created with Inkscape (http://www.inkscape.org/) -->

<svg
   xmlns:dc="http://purl.org/dc/elements/1.1/"
   xmlns:cc="http://creativecommons.org/ns#"
   xmlns:rdf="http://www.w3.org/1999/02/22-rdf-syntax-ns#"
   xmlns:svg="http://www.w3.org/2000/svg"
   xmlns="http://www.w3.org/2000/svg"
   xmlns:sodipodi="http://sodipodi.sourceforge.net/DTD/sodipodi-0.dtd"
   xmlns:inkscape="http://www.inkscape.org/namespaces/inkscape"
   width="2048"
   height="1523"
   id="svg2"
   version="1.1"
   inkscape:version="0.48.0 r9654"
   sodipodi:docname="fvs3.svg">
  <defs
     id="defs4" />
  <sodipodi:namedview
     id="base"
     pagecolor="#ffffff"
     bordercolor="#666666"
     borderopacity="1.0"
     inkscape:pageopacity="0.0"
     inkscape:pageshadow="2"
     inkscape:zoom="0.51074219"
     inkscape:cx="1169.8662"
     inkscape:cy="120.81759"
     inkscape:document-units="px"
     inkscape:current-layer="layer1"
     showgrid="false"
     showguides="true"
     inkscape:guide-bbox="true"
     inkscape:window-width="1458"
     inkscape:window-height="970"
     inkscape:window-x="1628"
     inkscape:window-y="32"
     inkscape:window-maximized="0">
    <sodipodi:guide
       orientation="1,0"
       position="910,348.57143"
       id="guide2985" />
    <sodipodi:guide
       orientation="1,0"
       position="713,417.14286"
       id="guide2987" />
  </sodipodi:namedview>
  <metadata
     id="metadata7">
    <rdf:RDF>
      <cc:Work
         rdf:about="">
        <dc:format>image/svg+xml</dc:format>
        <dc:type
           rdf:resource="http://purl.org/dc/dcmitype/StillImage" />
        <dc:title />
      </cc:Work>
    </rdf:RDF>
  </metadata>
  <g
     inkscape:label="Layer 1"
     inkscape:groupmode="layer"
     id="layer1"
     transform="translate(0,470.63784)">
    <path
       style="fill:#000000;fill-opacity:1;stroke:#000000;stroke-width:3.99708009"
       d="m 819.5622,-468.64225 c -44.2765,28.0753 -9.4368,46.58127 -14.3559,68.22257 -5.1087,22.47537 -26.2906,33.79918 -14.2265,76.6938 17.1461,42.01807 -34.7771,48.3313 -31.363,9.69989 39.8456,-40.58947 -24.5606,-40.37253 -3.8799,-81.54375 -32.08,14.43222 -18.3363,35.11847 -10.2172,55.09538 -88.6024,167.38269 206.719,178.7629 140.6484,10.86388 -20.3147,-26.83061 32.6574,-27.51199 -16.2312,-67.57591 15.241,42.04623 -34.3992,39.16594 -10.2818,76.17648 19.3552,22.55997 -22.3481,51.57693 -31.945,12.48053 4.6508,-30.67657 36.337,-55.96454 -17.8478,-120.66665 -3.4335,-14.30218 0.1585,-29.46906 9.6999,-39.44622 z m -4.2033,298.36865 c -72.7968,0 -131.7892,59.12174 -131.7892,131.918512 0,72.796838 58.9924,131.789185 131.7892,131.789185 72.7968,0 131.7892,-58.992347 131.7892,-131.789185 0,-72.796772 -58.9924,-131.918512 -131.7892,-131.918512 z M 997.0702,21.71957 C 895.3001,156.10483 762.0937,195.79364 629.2503,24.500205 666.8469,250.39147 949.1326,264.43799 997.0702,21.71957 z M 299.77735,34.264762 C 279.91098,34.26499 263.18162,39.89461 249.66124,51.207238 236.14116,62.38234 227.29585,78.02113 223.01888,98.025378 218.46631,79.952604 210.30208,65.981988 198.57515,56.186516 186.71066,46.391457 172.2271,41.507575 155.11964,41.507347 130.56272,41.507575 111.07458,50.762399 96.7263,69.249035 82.24063,87.736086 74.99885,112.85383 74.99854,144.58485 c 3.1e-4,12.27871 1.15556,25.38287 3.36263,39.3169 2.20768,13.79623 5.47943,28.62464 9.89389,44.49016 l 37.24758,0 c -5.24227,-15.72756 -9.09162,-30.15508 -11.5752,-43.26151 -2.48303,-13.10627 -3.75034,-25.40867 -3.75063,-36.85959 2.9e-4,-20.97001 4.31517,-37.00106 12.86852,-48.17612 8.41593,-11.312671 20.54159,-17.006957 36.40693,-17.007144 15.45191,1.87e-4 27.35344,5.461696 35.63093,16.360483 8.13992,10.899141 12.15738,26.650001 12.1572,47.206131 l 0,37.63558 34.40228,0 0,-36.01893 c 1.4e-4,-22.76352 5.17284,-40.46277 15.51982,-53.155399 10.20929,-12.83024 24.40404,-19.270264 42.61486,-19.27045 19.72857,1.86e-4 34.72509,6.897135 45.07216,20.693101 10.34715,13.658358 15.51984,33.603418 15.51982,59.815998 2e-5,15.03792 -1.72421,29.46544 -5.17327,43.26151 -3.44901,13.79621 -8.501,26.4995 -15.26117,38.08824 l 40.35155,0 c 5.1046,-14.62388 8.89789,-28.76261 11.38121,-42.42086 2.62125,-13.79607 3.94462,-27.18906 3.94462,-40.15755 0,-38.62909 -8.39703,-68.462645 -25.09039,-89.432991 C 353.82855,44.722476 330.26693,34.26499 299.77735,34.264762 z m 138.44977,199.559088 0,816.53685 169.74809,0 0,-816.53685 -169.74809,0 z m 583.61008,0 0,816.53685 169.7481,0 0,-816.53685 -169.7481,0 z m -47.9821,2.78064 -320.8724,0.38799 160.2422,99.52088 160.6302,-99.90887 z m -669.55114,56.97069 c -25.1089,2.5e-4 -45.11001,7.41014 -60.00999,22.30975 -15.03766,14.7621 -25.49512,37.75475 -31.42765,68.93389 l -5.17327,25.21972 c -4.27662,22.90173 -9.85021,38.54052 -16.74848,46.81814 -7.03584,8.13981 -17.38123,12.15726 -31.03965,12.15719 -16.27922,7e-5 -28.87044,-6.08646 -37.70024,-18.36512 -8.82927,-12.41644 -13.25623,-30.00361 -13.25652,-52.76741 2.9e-4,-13.1062 1.90126,-26.73195 5.62593,-40.80421 3.72524,-14.07189 9.35486,-29.01237 16.94248,-44.87816 l -40.73954,0 c -5.24225,15.72783 -9.21228,31.0692 -11.83387,46.10682 -2.62097,15.03798 -3.94431,29.81035 -3.94462,44.29616 3.1e-4,33.80071 7.87575,60.35389 23.60307,79.66844 15.72789,19.17671 37.28512,28.77637 64.60127,28.77634 23.59165,3e-5 41.98059,-6.95294 55.22471,-20.88709 13.24448,-13.93408 22.95623,-36.52583 29.16434,-67.70524 l 4.97928,-25.41372 c 4.27695,-21.24593 10.71696,-36.47521 19.27045,-45.71882 8.55372,-9.38119 20.39059,-14.09696 35.56627,-14.09717 17.38324,2.1e-4 30.7762,6.49625 40.15755,19.46445 9.38142,12.96857 14.09719,31.35749 14.09717,55.22471 2e-5,15.72773 -2.41389,31.76741 -7.24259,48.04679 -4.82861,16.27953 -12.01435,32.88821 -21.53375,49.85744 l 43.00285,0 c 6.4842,-17.65904 11.43275,-34.73326 14.74383,-51.15076 3.31108,-16.5553 4.97928,-32.12943 4.97928,-46.75347 0,-38.76706 -7.76337,-68.13504 -23.21507,-88.13968 -15.45167,-20.14216 -38.15552,-30.19874 -68.09324,-30.19899 z m 338.52624,79.79777 0,67.9639 342.4061,0 0,-67.9639 -342.4061,0 z m 167.1614,100.55554 c -93.8103,0 -169.8774,76.06711 -169.8774,169.87742 0,93.81031 76.0671,169.87742 169.8774,169.87742 93.8103,0 169.8774,-76.06711 169.8774,-169.87742 0,-93.81031 -76.0671,-169.87742 -169.8774,-169.87742 z m 32.2036,9.11789 c 84.7574,41.93097 80.8736,135.64373 -27.3536,172.85206 -92.2819,31.46044 -71.9979,86.43628 -40.3516,143.88171 -74.5102,-70.86193 -66.9031,-128.16284 31.2337,-170.58874 70.7959,-27.75597 101.2415,-69.82819 36.4715,-146.14503 z m -31.9449,30.45766 c 20.1929,0 36.6009,16.27866 36.6009,36.47159 0,20.19293 -16.408,36.60092 -36.6009,36.60092 -20.193,0 -36.4716,-16.40799 -36.4716,-36.60092 0,-20.19293 16.2786,-36.47159 36.4716,-36.47159 z m -729.62582,28.77634 0,43.45551 260.08641,98.09823 -260.08641,97.90424 0,43.64951 308.97386,-117.95068 0,-47.40013 L 80.62448,542.28038 z M 810.2503,697.34931 c 20.1929,0 36.6009,16.27866 36.6009,36.47159 0,20.1929 -16.408,36.60092 -36.6009,36.60092 -20.193,0 -36.4716,-16.40802 -36.4716,-36.60092 0,-20.19293 16.2786,-36.47159 36.4716,-36.47159 z m -167.4201,147.697 0,67.89924 342.4061,0 0,-67.89924 -342.4061,0 z m -562.20572,8.7299 0,177.50799 308.97386,0 0,-41.77418 -147.56768,0 0,-122.54195 -35.17827,0 0,122.54195 -91.04964,0 0,-135.73381 -35.17827,0 z m 893.23062,94.28294 -320.8724,0.388 160.2422,99.52085 160.6302,-99.90885 z"
       id="rect3103"
       inkscape:connector-curvature="0" />
  </g>
</svg>
