<?xml version="1.0" encoding="UTF-8" standalone="no"?>
<!-- Created with Inkscape (http://www.inkscape.org/) -->

<svg
   xmlns:dc="http://purl.org/dc/elements/1.1/"
   xmlns:cc="http://creativecommons.org/ns#"
   xmlns:rdf="http://www.w3.org/1999/02/22-rdf-syntax-ns#"
   xmlns:svg="http://www.w3.org/2000/svg"
   xmlns="http://www.w3.org/2000/svg"
   xmlns:sodipodi="http://sodipodi.sourceforge.net/DTD/sodipodi-0.dtd"
   xmlns:inkscape="http://www.inkscape.org/namespaces/inkscape"
   width="2048"
   height="681.82001"
   id="svg7265"
   version="1.1"
   inkscape:version="0.48.0 r9654"
   sodipodi:docname="gamedi.svg">
  <defs
     id="defs7267" />
  <sodipodi:namedview
     id="base"
     pagecolor="#ffffff"
     bordercolor="#666666"
     borderopacity="1.0"
     inkscape:pageopacity="0.0"
     inkscape:pageshadow="2"
     inkscape:zoom="0.5078125"
     inkscape:cx="1024"
     inkscape:cy="340.91"
     inkscape:document-units="px"
     inkscape:current-layer="layer1"
     showgrid="false"
     showguides="true"
     inkscape:guide-bbox="true"
     inkscape:window-width="1201"
     inkscape:window-height="716"
     inkscape:window-x="1864"
     inkscape:window-y="136"
     inkscape:window-maximized="0">
    <sodipodi:guide
       orientation="1,0"
       position="910,500"
       id="guide7280" />
    <sodipodi:guide
       orientation="1,0"
       position="713,371.42857"
       id="guide7282" />
  </sodipodi:namedview>
  <metadata
     id="metadata7270">
    <rdf:RDF>
      <cc:Work
         rdf:about="">
        <dc:format>image/svg+xml</dc:format>
        <dc:type
           rdf:resource="http://purl.org/dc/dcmitype/StillImage" />
        <dc:title />
      </cc:Work>
    </rdf:RDF>
  </metadata>
  <g
     inkscape:label="Layer 1"
     inkscape:groupmode="layer"
     id="layer1"
     transform="translate(0,-370.54219)">
    <path
       style="fill:#000000;fill-opacity:1;stroke:none"
       d="M 910,-0.40625 713,0 549.46875,106.25 l 0,36.03125 L 713,215.25 713,340 549.46875,446.25 l 0,36.03125 L 713,555.25 l 0,126.5625 197,0 0,-208.78125 0,-24.9375 -75.96875,-37.875 75.96875,-50.8125 0,-17.59375 0,-2.21875 0,-206.5625 0,-24.9375 -75.96875,-37.875 L 910,19.40625 z"
       transform="translate(0,370.54219)"
       id="path7252"
       inkscape:connector-curvature="0"
       sodipodi:nodetypes="cccccccccccccccccccccc" />
    <path
       style="fill:#000000;fill-opacity:1;stroke:none"
       d="m 220.22925,771.74048 c 38.07487,34.75726 104.13705,41.52696 171.733,46.76301 l 0,86.26965 C 353.77562,939.1399 307.11418,937.4879 260.54199,936.2172 221.29349,884.2595 221.95059,827.86788 220.22925,771.74048 z"
       id="path3953"
       inkscape:connector-curvature="0"
       sodipodi:nodetypes="ccccc" />
    <path
       style="fill:#000000;fill-opacity:1;stroke:none"
       d="m 220.22925,481.74048 c 38.07487,34.75726 104.13705,41.52696 171.733,46.76301 l 0,86.26965 C 353.77562,649.1399 307.11418,647.4879 260.54199,646.2172 221.29349,594.2595 221.95059,537.86788 220.22925,481.74048 z"
       id="path3953-8"
       inkscape:connector-curvature="0"
       sodipodi:nodetypes="ccccc" />
  </g>
</svg>
