<?xml version="1.0" encoding="UTF-8" standalone="no"?>
<!-- Created with Inkscape (http://www.inkscape.org/) -->

<svg
   xmlns:dc="http://purl.org/dc/elements/1.1/"
   xmlns:cc="http://creativecommons.org/ns#"
   xmlns:rdf="http://www.w3.org/1999/02/22-rdf-syntax-ns#"
   xmlns:svg="http://www.w3.org/2000/svg"
   xmlns="http://www.w3.org/2000/svg"
   xmlns:sodipodi="http://sodipodi.sourceforge.net/DTD/sodipodi-0.dtd"
   xmlns:inkscape="http://www.inkscape.org/namespaces/inkscape"
   width="2048"
   height="403.81"
   id="svg4764"
   version="1.1"
   inkscape:version="0.48.0 r9654"
   sodipodi:docname="gnumL.svg">
  <defs
     id="defs4766" />
  <sodipodi:namedview
     id="base"
     pagecolor="#ffffff"
     bordercolor="#666666"
     borderopacity="1.0"
     inkscape:pageopacity="0.0"
     inkscape:pageshadow="2"
     inkscape:zoom="0.50292969"
     inkscape:cx="1024"
     inkscape:cy="201.905"
     inkscape:document-units="px"
     inkscape:current-layer="layer1"
     showgrid="false"
     showguides="true"
     inkscape:guide-bbox="true"
     inkscape:window-width="1191"
     inkscape:window-height="733"
     inkscape:window-x="1617"
     inkscape:window-y="140"
     inkscape:window-maximized="0">
    <sodipodi:guide
       orientation="1,0"
       position="910,554.28571"
       id="guide4779" />
    <sodipodi:guide
       orientation="1,0"
       position="713,571.42857"
       id="guide4781" />
    <sodipodi:guide
       orientation="0,1"
       position="763.68545,513.69856"
       id="guide4783" />
    <sodipodi:guide
       orientation="0,1"
       position="828.04912,856.88984"
       id="guide4785" />
    <sodipodi:guide
       orientation="0,1"
       position="599.07695,200.66643"
       id="guide4380" />
  </sodipodi:namedview>
  <metadata
     id="metadata4769">
    <rdf:RDF>
      <cc:Work
         rdf:about="">
        <dc:format>image/svg+xml</dc:format>
        <dc:type
           rdf:resource="http://purl.org/dc/dcmitype/StillImage" />
        <dc:title></dc:title>
      </cc:Work>
    </rdf:RDF>
  </metadata>
  <g
     inkscape:label="Layer 1"
     inkscape:groupmode="layer"
     id="layer1"
     transform="translate(0,-648.55218)">
    <path
       style="fill:#000000;stroke:none"
       d="m 713,648.44968 0,31.96875 c -50.72624,48.76885 -104.32146,73.9274 -168.28125,110.25 109.45232,124.03538 202.80644,-32.74637 325.4375,-63.75 66.85155,3.59684 102.56447,34.02582 108.875,70.6875 C 961.23299,1067.9643 667.35422,919.0721 586.75,993.88718 c 21.24722,23.65362 73.42998,41.78702 126.25,50.31252 l 0,8.0625 197,0 0,-23.5625 c 95.2879,-28.1308 167.0767,-85.94078 179.9375,-190.56252 C 1109.6667,744.98797 1028.9364,649.10499 910,664.48093 l 0,-15.84375 -197,-0.1875 z"
       id="path4751"
       inkscape:connector-curvature="0" />
    <path
       style="fill:#000000;fill-opacity:1;stroke:none"
       d="m 1071.6246,858.63153 c 99.2909,-108.01024 259.7084,26.74359 425.8891,-293.78005 24.8768,114.94097 -50.9819,305.58373 -85.9169,347.36276 -147.8545,-40.10856 -247.9629,-37.09192 -339.9722,-28.63923 z"
       id="path7252"
       inkscape:connector-curvature="0"
       sodipodi:nodetypes="ccccc" />
  </g>
</svg>
