<?xml version="1.0" encoding="UTF-8" standalone="no"?>
<!-- Created with Inkscape (http://www.inkscape.org/) -->

<svg
   xmlns:dc="http://purl.org/dc/elements/1.1/"
   xmlns:cc="http://creativecommons.org/ns#"
   xmlns:rdf="http://www.w3.org/1999/02/22-rdf-syntax-ns#"
   xmlns:svg="http://www.w3.org/2000/svg"
   xmlns="http://www.w3.org/2000/svg"
   xmlns:sodipodi="http://sodipodi.sourceforge.net/DTD/sodipodi-0.dtd"
   xmlns:inkscape="http://www.inkscape.org/namespaces/inkscape"
   width="2048"
   height="649.59003"
   id="svg3218"
   version="1.1"
   inkscape:version="0.48.0 r9654"
   sodipodi:docname="koe.svg">
  <defs
     id="defs3220" />
  <sodipodi:namedview
     id="base"
     pagecolor="#ffffff"
     bordercolor="#666666"
     borderopacity="1.0"
     inkscape:pageopacity="0.0"
     inkscape:pageshadow="2"
     inkscape:zoom="0.43994141"
     inkscape:cx="1024"
     inkscape:cy="374.565"
     inkscape:document-units="px"
     inkscape:current-layer="layer1"
     showgrid="false"
     showguides="true"
     inkscape:guide-bbox="true"
     inkscape:window-width="1062"
     inkscape:window-height="795"
     inkscape:window-x="1875"
     inkscape:window-y="20"
     inkscape:window-maximized="0">
    <sodipodi:guide
       orientation="1,0"
       position="910,168.57143"
       id="guide3226" />
    <sodipodi:guide
       orientation="1,0"
       position="713,328.57143"
       id="guide3228" />
    <sodipodi:guide
       orientation="0,1"
       position="849.88868,68.607159"
       id="guide44366" />
  </sodipodi:namedview>
  <metadata
     id="metadata3223">
    <rdf:RDF>
      <cc:Work
         rdf:about="">
        <dc:format>image/svg+xml</dc:format>
        <dc:type
           rdf:resource="http://purl.org/dc/dcmitype/StillImage" />
        <dc:title />
      </cc:Work>
    </rdf:RDF>
  </metadata>
  <g
     inkscape:label="Layer 1"
     inkscape:groupmode="layer"
     id="layer1"
     transform="translate(0,-402.77218)">
    <path
       style="fill:#000000;stroke:none"
       d="m 713,402.76843 0,10.0625 c -31.56456,19.38971 -91.59396,41.61363 -164.375,65.125 l 1.59375,21.75 c 20.24436,48.93982 69.6036,35.84522 122.4375,15.53125 13.63035,-4.29469 26.99751,-7.91622 40.09375,-10.9375 -3.74475,39.54723 -36.43999,64.62609 -64.53125,92 164.97908,-7.68081 233.06301,-42.85917 255.46875,-91 222.4516,63.71092 269.4844,350.81289 6.3125,445.75 l 0,-297.84375 c 6.87886,-32.67542 -11.49897,-48.44246 -54.25,-48.03125 L 713,614.48718 c -364.66154,21.10431 -509.96787,454.74712 0,426.50002 l 0,11.375 197,0 0,-37.7813 c 317.1219,-40.88455 469.5918,-502.65767 0,-573.78122 l 0,-38.03125 -197,0 z m 0,284.65625 0,279.125 C 657.94172,956.31394 613.18459,970.67556 539.34375,915.36218 521.11495,909.57408 464.1697,723.83366 713,687.42468 z"
       id="path3202"
       inkscape:connector-curvature="0" />
  </g>
</svg>
