<?xml version="1.0" encoding="UTF-8" standalone="no"?>
<!-- Created with Inkscape (http://www.inkscape.org/) -->

<svg
   xmlns:dc="http://purl.org/dc/elements/1.1/"
   xmlns:cc="http://creativecommons.org/ns#"
   xmlns:rdf="http://www.w3.org/1999/02/22-rdf-syntax-ns#"
   xmlns:svg="http://www.w3.org/2000/svg"
   xmlns="http://www.w3.org/2000/svg"
   xmlns:sodipodi="http://sodipodi.sourceforge.net/DTD/sodipodi-0.dtd"
   xmlns:inkscape="http://www.inkscape.org/namespaces/inkscape"
   width="2048"
   height="749.13"
   id="svg3218"
   version="1.1"
   inkscape:version="0.48.0 r9654"
   sodipodi:docname="koe.svg">
  <defs
     id="defs3220" />
  <sodipodi:namedview
     id="base"
     pagecolor="#ffffff"
     bordercolor="#666666"
     borderopacity="1.0"
     inkscape:pageopacity="0.0"
     inkscape:pageshadow="2"
     inkscape:zoom="0.43994141"
     inkscape:cx="1024"
     inkscape:cy="374.565"
     inkscape:document-units="px"
     inkscape:current-layer="layer1"
     showgrid="false"
     showguides="true"
     inkscape:guide-bbox="true"
     inkscape:window-width="1062"
     inkscape:window-height="795"
     inkscape:window-x="1875"
     inkscape:window-y="20"
     inkscape:window-maximized="0">
    <sodipodi:guide
       orientation="1,0"
       position="910,168.57143"
       id="guide3226" />
    <sodipodi:guide
       orientation="1,0"
       position="713,328.57143"
       id="guide3228" />
    <sodipodi:guide
       orientation="0,1"
       position="364.91591,749.116"
       id="guide3403" />
    <sodipodi:guide
       orientation="0,1"
       position="243.54469,761.72489"
       id="guide3405" />
  </sodipodi:namedview>
  <metadata
     id="metadata3223">
    <rdf:RDF>
      <cc:Work
         rdf:about="">
        <dc:format>image/svg+xml</dc:format>
        <dc:type
           rdf:resource="http://purl.org/dc/dcmitype/StillImage" />
        <dc:title></dc:title>
      </cc:Work>
    </rdf:RDF>
  </metadata>
  <g
     inkscape:label="Layer 1"
     inkscape:groupmode="layer"
     id="layer1"
     transform="translate(0,-303.23218)">
    <path
       inkscape:connector-curvature="0"
       style="fill:#000000;stroke:none"
       d="M 910,303.02499 713,354.2303 c -31.56456,19.38971 -91.58901,41.62569 -164.37005,65.13706 l 1.58851,21.75308 c 20.24436,48.93982 69.61888,35.83443 122.45278,15.52046 C 1073.8007,330.25204 1248.5141,770.31974 910,892.43593 l 0,-297.82179 c 6.87886,-32.67542 -11.50948,-48.43909 -54.26051,-48.02788 L 713,555.87409 c -364.66154,21.10431 -509.96787,454.75431 0,426.50719 l 0,69.78092 197,-48.0278 0,-48.15013 c 317.1219,-40.88458 469.5918,-502.64471 0,-573.76826 l 0,-79.19102 z m -197,325.8075 0,279.1239 C 657.94172,897.72065 613.18295,912.06446 539.34211,856.75108 521.11331,850.96298 464.1697,665.24147 713,628.83249 z"
       id="path3202" />
    <path
       style="fill:#000000;fill-opacity:1;stroke:none"
       d="m 713,417.17883 197,0 0,11.084 C 896.64887,485.71955 833.61032,529.07575 648.20886,537.70735 677.10774,509.54645 710.88919,483.82673 713,442.27173 z"
       id="path12077"
       inkscape:connector-curvature="0"
       sodipodi:nodetypes="cccccc" />
  </g>
</svg>
