<?xml version="1.0" encoding="UTF-8" standalone="no"?>
<!-- Created with Inkscape (http://www.inkscape.org/) -->

<svg
   xmlns:dc="http://purl.org/dc/elements/1.1/"
   xmlns:cc="http://creativecommons.org/ns#"
   xmlns:rdf="http://www.w3.org/1999/02/22-rdf-syntax-ns#"
   xmlns:svg="http://www.w3.org/2000/svg"
   xmlns="http://www.w3.org/2000/svg"
   xmlns:sodipodi="http://sodipodi.sourceforge.net/DTD/sodipodi-0.dtd"
   xmlns:inkscape="http://www.inkscape.org/namespaces/inkscape"
   width="2048"
   height="798.29999"
   id="svg4515"
   version="1.1"
   inkscape:version="0.48.0 r9654"
   sodipodi:docname="lhastart.svg">
  <defs
     id="defs4517" />
  <sodipodi:namedview
     id="base"
     pagecolor="#ffffff"
     bordercolor="#666666"
     borderopacity="1.0"
     inkscape:pageopacity="0.0"
     inkscape:pageshadow="2"
     inkscape:zoom="0.40332031"
     inkscape:cx="1024"
     inkscape:cy="293"
     inkscape:document-units="px"
     inkscape:current-layer="layer1"
     showgrid="false"
     showguides="true"
     inkscape:guide-bbox="true"
     inkscape:window-width="987"
     inkscape:window-height="644"
     inkscape:window-x="1774"
     inkscape:window-y="270"
     inkscape:window-maximized="0">
    <sodipodi:guide
       orientation="1,0"
       position="910,1144.8447"
       id="guide4541" />
    <sodipodi:guide
       orientation="1,0"
       position="712.64904,-5.3284124"
       id="guide4770" />
  </sodipodi:namedview>
  <metadata
     id="metadata4520">
    <rdf:RDF>
      <cc:Work
         rdf:about="">
        <dc:format>image/svg+xml</dc:format>
        <dc:type
           rdf:resource="http://purl.org/dc/dcmitype/StillImage" />
        <dc:title></dc:title>
      </cc:Work>
    </rdf:RDF>
  </metadata>
  <g
     inkscape:label="Layer 1"
     inkscape:groupmode="layer"
     id="layer1"
     transform="translate(0,-254.06218)">
    <path
       style="fill:#000000;fill-opacity:1;stroke:none"
       d="m 737.45188,467.93458 c 149.19642,46.3344 336.15892,155.27775 332.15892,211.46225 2.4248,32.18194 -111.1832,61.16604 -241.79625,162.24548 l 82.09595,39.90777 0,172.43562 -197.25842,0 0,-65.25477 -161.91133,-63.8524 0,-35.34689 C 666.25165,805.49625 848.90334,713.76048 842.92247,675.45496 846.70405,629.82363 780.89958,533.22515 737.45188,467.93458 z"
       id="path3183"
       inkscape:connector-curvature="0"
       sodipodi:nodetypes="ccccccccccc" />
    <path
       style="fill:#000000;stroke:none"
       d="m 602.39704,482.01553 c 320.32624,-336.73256 801.79816,84.14333 434.42306,262.84405 l 51.1086,51.1088 C 1339.3999,664.40033 1270.5829,346.07724 939.47045,298.26833 l -3.65061,-42.59066 c -148.0693,22.19477 -303.80201,70.7156 -474.57995,174.01268 -7.96088,9.66234 -12.08526,20.42077 2.43381,36.50616 67.5205,19.60846 98.03643,14.28734 138.72334,15.81902 z"
       id="path3329"
       inkscape:connector-curvature="0"
       sodipodi:nodetypes="cccccccc" />
  </g>
</svg>
