<?xml version="1.0" encoding="UTF-8" standalone="no"?>
<!-- Created with Inkscape (http://www.inkscape.org/) -->

<svg
   xmlns:dc="http://purl.org/dc/elements/1.1/"
   xmlns:cc="http://creativecommons.org/ns#"
   xmlns:rdf="http://www.w3.org/1999/02/22-rdf-syntax-ns#"
   xmlns:svg="http://www.w3.org/2000/svg"
   xmlns="http://www.w3.org/2000/svg"
   xmlns:sodipodi="http://sodipodi.sourceforge.net/DTD/sodipodi-0.dtd"
   xmlns:inkscape="http://www.inkscape.org/namespaces/inkscape"
   width="2048"
   height="389.64001"
   id="svg10763"
   version="1.1"
   inkscape:version="0.48.0 r9654"
   sodipodi:docname="mfina.svg">
  <defs
     id="defs10765" />
  <sodipodi:namedview
     id="base"
     pagecolor="#ffffff"
     bordercolor="#666666"
     borderopacity="1.0"
     inkscape:pageopacity="0.0"
     inkscape:pageshadow="2"
     inkscape:zoom="0.53125"
     inkscape:cx="1024"
     inkscape:cy="194.82001"
     inkscape:document-units="px"
     inkscape:current-layer="layer1"
     showgrid="false"
     showguides="true"
     inkscape:guide-bbox="true"
     inkscape:window-width="1249"
     inkscape:window-height="752"
     inkscape:window-x="1696"
     inkscape:window-y="299"
     inkscape:window-maximized="0">
    <sodipodi:guide
       orientation="1,0"
       position="910,185.71429"
       id="guide11286" />
    <sodipodi:guide
       orientation="1,0"
       position="713,254.28571"
       id="guide11288" />
    <sodipodi:guide
       orientation="0,1"
       position="380.23529,389.64706"
       id="guide12775" />
  </sodipodi:namedview>
  <metadata
     id="metadata10768">
    <rdf:RDF>
      <cc:Work
         rdf:about="">
        <dc:format>image/svg+xml</dc:format>
        <dc:type
           rdf:resource="http://purl.org/dc/dcmitype/StillImage" />
        <dc:title />
      </cc:Work>
    </rdf:RDF>
  </metadata>
  <g
     inkscape:label="Layer 1"
     inkscape:groupmode="layer"
     id="layer1"
     transform="translate(0,-662.72217)">
    <path
       style="fill:#000000;fill-opacity:1;stroke:none"
       d="M 1207.6875 -69.6875 C 1114.4352 -69.112318 992.78394 -24.807858 910 12.84375 L 910 -0.5625 L 713 -0.5625 L 713 61.65625 C 634.74655 133.88997 496.8757 167.17446 585.3125 348.3125 C 601.78228 395.0015 639.782 396.9299 687.09375 379.5625 L 851.40625 330.46875 C 902.74032 312.79591 947.14888 322.16223 971.96875 377.78125 C 981.61119 347.30445 1037.7444 176.79581 920.1875 174.1875 C 861.06276 166.26509 782.08843 194.86331 735.96875 202.15625 C 704.43654 207.03502 705.01794 203.5896 722.375 175.375 C 760.18202 118.37274 839.90312 93.734726 909.71875 61.78125 L 910 61.78125 L 910 61.65625 L 910 61.4375 C 1160.8546 3.62221 1257.6987 46.75829 1271.5 277.1875 C 1405.1884 5.8642253 1331.4588 -70.450923 1207.6875 -69.6875 z "
       transform="translate(0,662.72217)"
       id="path10750" />
  </g>
</svg>
