<?xml version="1.0" encoding="UTF-8" standalone="no"?>
<!-- Created with Inkscape (http://www.inkscape.org/) -->

<svg
   xmlns:dc="http://purl.org/dc/elements/1.1/"
   xmlns:cc="http://creativecommons.org/ns#"
   xmlns:rdf="http://www.w3.org/1999/02/22-rdf-syntax-ns#"
   xmlns:svg="http://www.w3.org/2000/svg"
   xmlns="http://www.w3.org/2000/svg"
   xmlns:sodipodi="http://sodipodi.sourceforge.net/DTD/sodipodi-0.dtd"
   xmlns:inkscape="http://www.inkscape.org/namespaces/inkscape"
   width="2048"
   height="1523"
   id="svg2"
   version="1.1"
   inkscape:version="0.48.0 r9654"
   sodipodi:docname="mvs.svg">
  <defs
     id="defs4" />
  <sodipodi:namedview
     id="base"
     pagecolor="#ffffff"
     bordercolor="#666666"
     borderopacity="1.0"
     inkscape:pageopacity="0.0"
     inkscape:pageshadow="2"
     inkscape:zoom="0.51346028"
     inkscape:cx="1024"
     inkscape:cy="761.5"
     inkscape:document-units="px"
     inkscape:current-layer="layer1"
     showgrid="false"
     showguides="true"
     inkscape:guide-bbox="true"
     inkscape:window-width="1458"
     inkscape:window-height="970"
     inkscape:window-x="1628"
     inkscape:window-y="32"
     inkscape:window-maximized="0">
    <sodipodi:guide
       orientation="1,0"
       position="910,348.57143"
       id="guide2985" />
    <sodipodi:guide
       orientation="1,0"
       position="713,417.14286"
       id="guide2987" />
  </sodipodi:namedview>
  <metadata
     id="metadata7">
    <rdf:RDF>
      <cc:Work
         rdf:about="">
        <dc:format>image/svg+xml</dc:format>
        <dc:type
           rdf:resource="http://purl.org/dc/dcmitype/StillImage" />
        <dc:title />
      </cc:Work>
    </rdf:RDF>
  </metadata>
  <g
     inkscape:label="Layer 1"
     inkscape:groupmode="layer"
     id="layer1"
     transform="translate(0,470.63784)">
    <path
       style="fill:#000000;fill-opacity:1;stroke:#000000;stroke-width:3.99708009"
       d="m 819.5622,-468.64225 c -44.2765,28.0753 -9.4368,46.58127 -14.3559,68.22257 -5.1087,22.47537 -26.2906,33.79918 -14.2265,76.6938 17.1461,42.01807 -34.7771,48.3313 -31.363,9.69989 39.8456,-40.58947 -24.5606,-40.37253 -3.8799,-81.54375 -32.08,14.43222 -18.3363,35.11847 -10.2172,55.09538 -88.6024,167.38269 206.719,178.7629 140.6484,10.86388 -20.3147,-26.83061 32.6574,-27.51199 -16.2312,-67.57591 15.241,42.04623 -34.3992,39.16594 -10.2818,76.17648 19.3552,22.55997 -22.3481,51.57693 -31.945,12.48053 4.6508,-30.67657 36.337,-55.96454 -17.8478,-120.66665 -3.4335,-14.30218 0.1585,-29.46906 9.6999,-39.44622 z m -4.2033,298.36865 c -72.7968,0 -131.7892,59.12174 -131.7892,131.918512 0,72.796838 58.9924,131.789185 131.7892,131.789185 72.7968,0 131.7892,-58.992347 131.7892,-131.789185 0,-72.796772 -58.9924,-131.918512 -131.7892,-131.918512 z M 997.0702,21.71957 C 895.3001,156.10483 762.0937,195.79364 629.2503,24.500205 666.8469,250.39147 949.1326,264.43799 997.0702,21.71957 z M 304.30396,171.87388 c -25.1089,2.5e-4 -45.11001,7.4748 -60.00999,22.37442 -15.03766,14.7621 -25.49512,37.69008 -31.42765,68.86922 l -5.17327,25.28438 c -4.27662,22.90174 -9.85021,38.47587 -16.74848,46.75348 -7.03584,8.13982 -17.38123,12.22192 -31.03965,12.22186 -16.27922,6e-5 -28.87044,-6.15113 -37.70024,-18.42979 -8.82927,-12.41644 -13.25623,-30.00361 -13.25652,-52.76741 2.9e-4,-13.1062 1.90126,-26.73195 5.62593,-40.80421 3.72524,-14.07188 9.35486,-29.01236 16.94248,-44.87816 l -40.73954,0 c -5.24225,15.72783 -9.21228,31.13387 -11.83387,46.17148 -2.62097,15.03799 -3.94431,29.81036 -3.94462,44.29617 3.1e-4,33.80071 7.87575,60.35389 23.60307,79.66844 15.72789,19.17671 37.28512,28.7117 64.60127,28.71168 23.59165,2e-5 41.98059,-6.95295 55.22471,-20.8871 13.24448,-13.93407 22.95623,-36.46116 29.16434,-67.64058 l 4.97928,-25.47838 c 4.27695,-21.24593 10.71696,-36.47521 19.27045,-45.71881 8.55372,-9.3812 20.39059,-14.09697 35.56627,-14.09718 17.38324,2.1e-4 30.7762,6.49625 40.15755,19.46445 9.38142,12.96857 14.09719,31.42216 14.09717,55.28938 2e-5,15.72773 -2.41389,31.70274 -7.24259,47.98212 -4.82861,16.27954 -12.01435,32.88821 -21.53375,49.85744 l 43.00285,0 c 6.4842,-17.65903 11.43275,-34.6686 14.74383,-51.08609 3.31108,-16.55531 4.97928,-32.12943 4.97928,-46.75347 0,-38.76706 -7.76337,-68.1997 -23.21507,-88.20434 -15.45167,-20.14217 -38.15552,-30.19875 -68.09324,-30.199 z m 133.92316,61.94997 0,816.53685 169.74809,0 0,-816.53685 -169.74809,0 z m 583.61008,0 0,816.53685 169.7481,0 0,-816.53685 -169.7481,0 z m -47.9821,2.78064 -320.8724,0.38799 160.2422,99.52088 160.6302,-99.90887 z m -331.0249,136.76846 0,67.9639 342.4061,0 0,-67.9639 -342.4061,0 z m -562.20572,47.2708 0,43.45551 260.08641,98.09823 -260.08641,97.83957 0,43.64951 308.97386,-117.95068 0,-47.33546 L 80.62448,420.64375 z m 729.36712,53.28474 c -93.8103,0 -169.8774,76.06711 -169.8774,169.87742 0,93.81031 76.0671,169.87742 169.8774,169.87742 93.8103,0 169.8774,-76.06711 169.8774,-169.87742 0,-93.81031 -76.0671,-169.87742 -169.8774,-169.87742 z m 32.2036,9.11789 c 84.7574,41.93097 80.8736,135.64373 -27.3536,172.85206 -92.2819,31.46044 -71.9979,86.43628 -40.3516,143.88171 -74.5102,-70.86193 -66.9031,-128.16284 31.2337,-170.58874 70.7959,-27.75597 101.2415,-69.82819 36.4715,-146.14503 z m -31.9449,30.45766 c 20.1929,0 36.6009,16.27866 36.6009,36.47159 0,20.19293 -16.408,36.60092 -36.6009,36.60092 -20.193,0 -36.4716,-16.40799 -36.4716,-36.60092 0,-20.19293 16.2786,-36.47159 36.4716,-36.47159 z m 0,183.84527 c 20.1929,0 36.6009,16.27866 36.6009,36.47159 0,20.1929 -16.408,36.60092 -36.6009,36.60092 -20.193,0 -36.4716,-16.40802 -36.4716,-36.60092 0,-20.19293 16.2786,-36.47159 36.4716,-36.47159 z m -729.62582,51.28009 0,62.2733 210.22897,79.28044 -210.22897,78.82778 0,62.27328 308.97386,0 0,-40.54553 -271.33829,0 211.91029,-79.66843 0,-42.03286 -211.91029,-79.66844 271.33829,0 0,-40.73954 -308.97386,0 z m 562.20572,96.41691 0,67.89924 342.4061,0 0,-67.89924 -342.4061,0 z m 331.0249,103.01284 -320.8724,0.388 160.2422,99.52085 160.6302,-99.90885 z"
       id="rect3103"
       inkscape:connector-curvature="0" />
  </g>
</svg>
