<?xml version="1.0" encoding="UTF-8" standalone="no"?>
<!-- Created with Inkscape (http://www.inkscape.org/) -->

<svg
   xmlns:dc="http://purl.org/dc/elements/1.1/"
   xmlns:cc="http://creativecommons.org/ns#"
   xmlns:rdf="http://www.w3.org/1999/02/22-rdf-syntax-ns#"
   xmlns:svg="http://www.w3.org/2000/svg"
   xmlns="http://www.w3.org/2000/svg"
   xmlns:sodipodi="http://sodipodi.sourceforge.net/DTD/sodipodi-0.dtd"
   xmlns:inkscape="http://www.inkscape.org/namespaces/inkscape"
   width="2048"
   height="600"
   id="svg3070"
   version="1.1"
   inkscape:version="0.48.0 r9654"
   sodipodi:docname="number3.svg">
  <defs
     id="defs3072" />
  <sodipodi:namedview
     id="base"
     pagecolor="#ffffff"
     bordercolor="#666666"
     borderopacity="1.0"
     inkscape:pageopacity="0.0"
     inkscape:pageshadow="2"
     inkscape:zoom="0.35"
     inkscape:cx="375"
     inkscape:cy="520"
     inkscape:document-units="px"
     inkscape:current-layer="layer1"
     showgrid="false"
     showguides="true"
     inkscape:guide-bbox="true"
     inkscape:window-width="1137"
     inkscape:window-height="839"
     inkscape:window-x="1855"
     inkscape:window-y="22"
     inkscape:window-maximized="0">
    <sodipodi:guide
       orientation="1,0"
       position="910,988.57143"
       id="guide3085" />
    <sodipodi:guide
       orientation="1,0"
       position="713,1005.7143"
       id="guide3087" />
  </sodipodi:namedview>
  <metadata
     id="metadata3075">
    <rdf:RDF>
      <cc:Work
         rdf:about="">
        <dc:format>image/svg+xml</dc:format>
        <dc:type
           rdf:resource="http://purl.org/dc/dcmitype/StillImage" />
        <dc:title></dc:title>
      </cc:Work>
    </rdf:RDF>
  </metadata>
  <g
     inkscape:label="Layer 1"
     inkscape:groupmode="layer"
     id="layer1"
     transform="translate(0,-452.36218)">
    <path
       style="fill:#000000;stroke:none"
       d="m 779.14326,475.39323 c -36.09322,12.21776 -36.7421,46.60863 -2.96211,59.97046 83.73658,33.1224 184.97131,114.34864 195.63365,123.34094 64.6335,54.50975 75.1285,181.81636 -36.15204,194.37704 149.50054,89.28315 108.95334,298.08763 -76.55846,192.24683 -35.69588,-28.7955 -71.31834,-57.95822 -111.43506,-64.6494 36.36383,114.9612 0.45193,101.4322 -21.26627,113.1364 l -75.70782,-32.3247 C 724.35646,1031.1343 552.35304,878.58361 738.31208,926.23754 799.94196,948.83943 859.106,967.77928 910,985.18033 1003.4105,1017.1181 1062.7441,930.2053 837.83808,827.56218 721.64307,773.49727 684.79076,778.1156 646.44193,781.62711 L 643.88998,680.3998 C 746.17321,699.45915 895.211,760.96471 930.56015,767.43148 1051.1901,789.49948 982.11704,632.8647 812.31859,613.19846 482.74306,558.89109 714.50075,450.78797 779.14326,475.39323 z"
       id="path3209"
       inkscape:connector-curvature="0"
       sodipodi:nodetypes="cssccccccscccscc" />
  </g>
</svg>
