<?xml version="1.0" encoding="UTF-8" standalone="no"?>
<!-- Created with Inkscape (http://www.inkscape.org/) -->

<svg
   xmlns:dc="http://purl.org/dc/elements/1.1/"
   xmlns:cc="http://creativecommons.org/ns#"
   xmlns:rdf="http://www.w3.org/1999/02/22-rdf-syntax-ns#"
   xmlns:svg="http://www.w3.org/2000/svg"
   xmlns="http://www.w3.org/2000/svg"
   xmlns:sodipodi="http://sodipodi.sourceforge.net/DTD/sodipodi-0.dtd"
   xmlns:inkscape="http://www.inkscape.org/namespaces/inkscape"
   width="2048"
   height="600"
   id="svg3070"
   version="1.1"
   inkscape:version="0.48.0 r9654"
   sodipodi:docname="number4.svg">
  <defs
     id="defs3072" />
  <sodipodi:namedview
     id="base"
     pagecolor="#ffffff"
     bordercolor="#666666"
     borderopacity="1.0"
     inkscape:pageopacity="0.0"
     inkscape:pageshadow="2"
     inkscape:zoom="0.35"
     inkscape:cx="375"
     inkscape:cy="520"
     inkscape:document-units="px"
     inkscape:current-layer="layer1"
     showgrid="false"
     showguides="true"
     inkscape:guide-bbox="true"
     inkscape:window-width="1137"
     inkscape:window-height="839"
     inkscape:window-x="1855"
     inkscape:window-y="22"
     inkscape:window-maximized="0">
    <sodipodi:guide
       orientation="1,0"
       position="910,988.57143"
       id="guide3085" />
    <sodipodi:guide
       orientation="1,0"
       position="713,1005.7143"
       id="guide3087" />
  </sodipodi:namedview>
  <metadata
     id="metadata3075">
    <rdf:RDF>
      <cc:Work
         rdf:about="">
        <dc:format>image/svg+xml</dc:format>
        <dc:type
           rdf:resource="http://purl.org/dc/dcmitype/StillImage" />
        <dc:title></dc:title>
      </cc:Work>
    </rdf:RDF>
  </metadata>
  <g
     inkscape:label="Layer 1"
     inkscape:groupmode="layer"
     id="layer1"
     transform="translate(0,-452.36218)">
    <path
       style="fill:#000000;stroke:none"
       d="M 964.80982,467.50729 C 927.85132,515.32037 921.88783,599.29426 911.34335,677.9237 856.53403,631.02253 785.96865,603.81644 713,579.61441 591.74009,760.54942 756.95417,1004.2941 825.10712,1017.6945 l -1.72472,24.1461 C 682.75249,998.52733 524.97717,810.24649 633.66268,545.11991 c 9.86781,-17.54505 25.60577,-15.75325 41.3934,-13.79782 67.21489,14.42208 124.14817,39.12578 177.64666,67.26426 5.06332,-33.45551 8.47754,-81.04486 21.89393,-106.1473 3.34113,-6.24616 7.92108,-11.48698 17.77471,-14.58342 z"
       id="path3308"
       inkscape:connector-curvature="0"
       sodipodi:nodetypes="ccccccccccc" />
    <path
       style="fill:#000000;stroke:none"
       d="m 911.50373,716.49025 0.49525,104.49677 c -8.07879,-5.72094 -52.75697,-29.33686 -50.51507,-76.26778 2.60733,-19.1469 13.76631,-21.85571 23.27655,-27.73375 z"
       id="path3310"
       inkscape:connector-curvature="0"
       sodipodi:nodetypes="ccccc" />
  </g>
</svg>
