<?xml version="1.0" encoding="UTF-8" standalone="no"?>
<!-- Created with Inkscape (http://www.inkscape.org/) -->

<svg
   xmlns:dc="http://purl.org/dc/elements/1.1/"
   xmlns:cc="http://creativecommons.org/ns#"
   xmlns:rdf="http://www.w3.org/1999/02/22-rdf-syntax-ns#"
   xmlns:svg="http://www.w3.org/2000/svg"
   xmlns="http://www.w3.org/2000/svg"
   xmlns:sodipodi="http://sodipodi.sourceforge.net/DTD/sodipodi-0.dtd"
   xmlns:inkscape="http://www.inkscape.org/namespaces/inkscape"
   width="2048"
   height="491.91"
   id="svg3206"
   version="1.1"
   inkscape:version="0.47pre4 r22446"
   sodipodi:docname="shfina.svg">
  <defs
     id="defs3208">
    <inkscape:perspective
       sodipodi:type="inkscape:persp3d"
       inkscape:vp_x="0 : 245.955 : 1"
       inkscape:vp_y="0 : 1000 : 0"
       inkscape:vp_z="2048 : 245.955 : 1"
       inkscape:persp3d-origin="1024 : 163.97 : 1"
       id="perspective3208" />
    <inkscape:perspective
       id="perspective3306"
       inkscape:persp3d-origin="0.5 : 0.33333333 : 1"
       inkscape:vp_z="1 : 0.5 : 1"
       inkscape:vp_y="0 : 1000 : 0"
       inkscape:vp_x="0 : 0.5 : 1"
       sodipodi:type="inkscape:persp3d" />
  </defs>
  <sodipodi:namedview
     id="base"
     pagecolor="#ffffff"
     bordercolor="#666666"
     borderopacity="1.0"
     inkscape:pageopacity="0.0"
     inkscape:pageshadow="2"
     inkscape:zoom="0.70212489"
     inkscape:cx="1124.3498"
     inkscape:cy="269.32024"
     inkscape:document-units="px"
     inkscape:current-layer="layer1"
     showgrid="false"
     showguides="true"
     inkscape:guide-bbox="true"
     inkscape:window-width="1278"
     inkscape:window-height="1008"
     inkscape:window-x="0"
     inkscape:window-y="14"
     inkscape:window-maximized="0">
    <sodipodi:guide
       orientation="1,0"
       position="910,485.71429"
       id="guide3214" />
    <sodipodi:guide
       orientation="1,0"
       position="713,534.28571"
       id="guide3216" />
  </sodipodi:namedview>
  <metadata
     id="metadata3211">
    <rdf:RDF>
      <cc:Work
         rdf:about="">
        <dc:format>image/svg+xml</dc:format>
        <dc:type
           rdf:resource="http://purl.org/dc/dcmitype/StillImage" />
        <dc:title></dc:title>
      </cc:Work>
    </rdf:RDF>
  </metadata>
  <g
     inkscape:label="Layer 1"
     inkscape:groupmode="layer"
     id="layer1"
     transform="translate(0,-560.45218)">
    <path
       style="fill:#000000;stroke:none"
       d="m 909.95426,560.44334 c -8.20951,81.85191 265.29364,41.99399 283.76344,36.40386 -2.0507,83.39989 -223.10958,197.30262 -361.23833,270.69543 104.9603,-19.46237 167.73513,-14.10972 231.49133,-9.33434 59.4894,8.60221 113.3598,22.29207 -7.4675,194.15391 C 1082.494,960.96753 790.91507,996.31364 710.19972,1013.1581 684.87162,953.71929 541.11129,927.69633 819.41132,790.06774 961.16842,713.4547 972.37449,691.0327 985.5623,667.78806 854.70354,661.42087 726.94649,653.95516 713,606.18153 l 3.6e-4,-45.73789 z"
       id="path3193"
       inkscape:connector-curvature="0"
       sodipodi:nodetypes="ccccccccccc" />
    <path
       style="fill:#000000;fill-opacity:1;stroke:none"
       d="m 1258.8152,873.21024 c 38.0749,34.7572 104.1371,41.5269 171.733,46.763 l 0,86.26966 c -38.1866,34.3668 -84.848,32.7148 -131.4202,31.444 -39.2485,-51.9576 -38.5914,-108.34926 -40.3128,-164.47666 z"
       id="path3953"
       inkscape:connector-curvature="0"
       sodipodi:nodetypes="ccccc" />
    <path
       style="fill:#000000;fill-opacity:1;stroke:none"
       d="m 1258.8152,583.21022 c 38.0749,34.75726 104.1371,41.52696 171.733,46.76301 l 0,86.26965 c -38.1866,34.36676 -84.848,32.71476 -131.4202,31.44406 -39.2485,-51.9577 -38.5914,-108.34932 -40.3128,-164.47672 z"
       id="path3953-8"
       inkscape:connector-curvature="0"
       sodipodi:nodetypes="ccccc" />
  </g>
</svg>
