<?xml version="1.0" encoding="UTF-8" standalone="no"?>
<!-- Created with Inkscape (http://www.inkscape.org/) -->

<svg
   xmlns:dc="http://purl.org/dc/elements/1.1/"
   xmlns:cc="http://creativecommons.org/ns#"
   xmlns:rdf="http://www.w3.org/1999/02/22-rdf-syntax-ns#"
   xmlns:svg="http://www.w3.org/2000/svg"
   xmlns="http://www.w3.org/2000/svg"
   xmlns:sodipodi="http://sodipodi.sourceforge.net/DTD/sodipodi-0.dtd"
   xmlns:inkscape="http://www.inkscape.org/namespaces/inkscape"
   width="2048"
   height="608.35999"
   id="svg3749"
   version="1.1"
   inkscape:version="0.48.0 r9654"
   sodipodi:docname="shmedi.svg">
  <defs
     id="defs3751" />
  <sodipodi:namedview
     id="base"
     pagecolor="#ffffff"
     bordercolor="#666666"
     borderopacity="1.0"
     inkscape:pageopacity="0.0"
     inkscape:pageshadow="2"
     inkscape:zoom="0.47558594"
     inkscape:cx="1024"
     inkscape:cy="304.17999"
     inkscape:document-units="px"
     inkscape:current-layer="layer1"
     showgrid="false"
     showguides="true"
     inkscape:guide-bbox="true"
     inkscape:window-width="1135"
     inkscape:window-height="716"
     inkscape:window-x="1785"
     inkscape:window-y="122"
     inkscape:window-maximized="0">
    <sodipodi:guide
       orientation="1,0"
       position="910,171.42857"
       id="guide3757" />
    <sodipodi:guide
       orientation="1,0"
       position="713,97.142857"
       id="guide3759" />
    <sodipodi:guide
       orientation="0,1"
       position="823.69373,579.8566"
       id="guide3893" />
  </sodipodi:namedview>
  <metadata
     id="metadata3754">
    <rdf:RDF>
      <cc:Work
         rdf:about="">
        <dc:format>image/svg+xml</dc:format>
        <dc:type
           rdf:resource="http://purl.org/dc/dcmitype/StillImage" />
        <dc:title />
      </cc:Work>
    </rdf:RDF>
  </metadata>
  <g
     inkscape:label="Layer 1"
     inkscape:groupmode="layer"
     id="layer1"
     transform="translate(0,-444.00219)">
    <path
       style="fill:#000000;stroke:none"
       d="m 910,472.50559 c 0,53.21922 170.899,7.24304 277.7871,0.67942 C 1119.71,633.18428 890.15743,726.71457 822.85108,763.6814 L 910,805.44026 l 0,246.92194 -197.90779,0 0,-125.27661 -156.13473,-63.54602 0,-32.68087 157.95031,-98.04254 C 753.30841,715.66512 900.37429,656.19788 988.0709,547.62468 881.51732,535.16662 748.11579,576.42018 713,472.50559 l 0,-28.15107 197,-0.35802 z"
       id="path3736"
       inkscape:connector-curvature="0"
       sodipodi:nodetypes="ccccccccccccccc" />
    <path
       style="fill:#000000;fill-opacity:1;stroke:none"
       d="m 1258.8152,813.21025 c 38.0749,34.7572 104.1371,41.5269 171.733,46.763 l 0,86.26963 c -38.1866,34.36682 -84.848,32.71482 -131.4202,31.4441 -39.2485,-51.9577 -38.5914,-108.34933 -40.3128,-164.47673 z"
       id="path3953"
       inkscape:connector-curvature="0"
       sodipodi:nodetypes="ccccc" />
    <path
       style="fill:#000000;fill-opacity:1;stroke:none"
       d="m 1258.8152,523.21023 c 38.0749,34.75726 104.1371,41.52696 171.733,46.76301 l 0,86.26965 c -38.1866,34.36676 -84.848,32.71476 -131.4202,31.44406 -39.2485,-51.9577 -38.5914,-108.34932 -40.3128,-164.47672 z"
       id="path3953-8"
       inkscape:connector-curvature="0"
       sodipodi:nodetypes="ccccc" />
  </g>
</svg>
