<?xml version="1.0" encoding="UTF-8" standalone="no"?>
<!-- Created with Inkscape (http://www.inkscape.org/) -->

<svg
   xmlns:dc="http://purl.org/dc/elements/1.1/"
   xmlns:cc="http://creativecommons.org/ns#"
   xmlns:rdf="http://www.w3.org/1999/02/22-rdf-syntax-ns#"
   xmlns:svg="http://www.w3.org/2000/svg"
   xmlns="http://www.w3.org/2000/svg"
   xmlns:sodipodi="http://sodipodi.sourceforge.net/DTD/sodipodi-0.dtd"
   xmlns:inkscape="http://www.inkscape.org/namespaces/inkscape"
   width="2048"
   height="736"
   id="svg2"
   version="1.1"
   inkscape:version="0.48.0 r9654"
   sodipodi:docname="soyombo.svg">
  <defs
     id="defs4" />
  <sodipodi:namedview
     id="base"
     pagecolor="#ffffff"
     bordercolor="#666666"
     borderopacity="1.0"
     inkscape:pageopacity="0.0"
     inkscape:pageshadow="2"
     inkscape:zoom="0.51074219"
     inkscape:cx="1248.1836"
     inkscape:cy="434.08719"
     inkscape:document-units="px"
     inkscape:current-layer="layer1"
     showgrid="false"
     showguides="true"
     inkscape:guide-bbox="true"
     inkscape:window-width="1458"
     inkscape:window-height="970"
     inkscape:window-x="1628"
     inkscape:window-y="32"
     inkscape:window-maximized="0">
    <sodipodi:guide
       orientation="1,0"
       position="910,348.57143"
       id="guide2985" />
    <sodipodi:guide
       orientation="1,0"
       position="713,417.14286"
       id="guide2987" />
  </sodipodi:namedview>
  <metadata
     id="metadata7">
    <rdf:RDF>
      <cc:Work
         rdf:about="">
        <dc:format>image/svg+xml</dc:format>
        <dc:type
           rdf:resource="http://purl.org/dc/dcmitype/StillImage" />
        <dc:title></dc:title>
      </cc:Work>
    </rdf:RDF>
  </metadata>
  <g
     inkscape:label="Layer 1"
     inkscape:groupmode="layer"
     id="layer1"
     transform="translate(0,-316.36216)">
    <path
       inkscape:connector-curvature="0"
       style="fill:#000000;fill-opacity:1;stroke:#000000;stroke-width:1.93160033"
       d="m 813.76359,317.32793 c -21.39672,13.56747 -4.56453,22.49971 -6.94168,32.95793 -2.46881,10.86129 -12.71136,16.33363 -6.88134,37.06258 8.2859,20.30535 -16.8009,23.37702 -15.15099,4.70828 19.25549,-19.61498 -11.86528,-19.52061 -1.87126,-39.41672 -15.50275,6.97441 -8.87325,16.96596 -4.94971,26.61986 -42.81736,80.88816 99.89699,86.38923 67.96818,5.25155 -9.81714,-12.96597 15.77842,-13.29512 -7.84712,-32.65612 7.36525,20.31896 -16.60452,18.93567 -4.94972,36.82112 9.35348,10.90217 -10.81507,24.92971 -15.4528,6.03626 2.24753,-14.82454 17.55311,-27.04271 -8.63185,-58.31019 -1.65926,-6.91157 0.0974,-14.25306 4.70828,-19.07455 z m -2.05233,144.20603 c -35.17926,0 -63.68245,28.56356 -63.68245,63.74281 0,35.17928 28.50319,63.68246 63.68245,63.68246 35.17929,0 63.68245,-28.50318 63.68245,-63.68246 0,-35.17925 -28.50316,-63.74281 -63.68245,-63.74281 z m 87.82746,92.77719 c -49.18069,64.94206 -113.57062,84.10601 -177.76758,1.32797 18.16868,109.1626 154.6016,115.9664 177.76758,-1.32797 z m -270.06188,102.49554 0,394.58961 82.03266,0 0,-394.58961 -82.03266,0 z m 282.01365,0 0,394.58961 82.03267,0 0,-394.58961 -82.03268,0 z m -23.17921,1.32798 -155.07128,0.18091 77.44511,48.10892 77.62617,-48.29 z m -159.96064,66.09695 0,32.8372 165.45365,0 0,-32.8372 -165.45364,0 z m 80.76503,48.59183 c -45.33411,0 -82.09302,36.7589 -82.09302,82.093 0,45.3341 36.75891,82.09302 82.09302,82.09302 45.33411,0 82.093,-36.75892 82.093,-82.09302 0,-45.3341 -36.7589,-82.093 -82.093,-82.093 z m 15.57354,4.40646 c 40.95924,20.26326 39.08172,65.56069 -13.21939,83.54172 -44.59546,15.20335 -34.79029,41.77694 -19.49711,69.53761 -36.00726,-34.24423 -32.33421,-61.95276 15.09064,-82.4552 34.21232,-13.41315 48.92611,-33.7438 17.62586,-70.62413 z m -15.45281,14.72844 c 9.75828,0 17.6862,7.86756 17.6862,17.62585 0,9.75829 -7.92792,17.68622 -17.6862,17.68622 -9.75831,0 -17.62585,-7.92793 -17.62585,-17.68622 0,-9.75829 7.86754,-17.62585 17.62585,-17.62585 z m 0,88.85362 c 9.75828,0 17.6862,7.86758 17.6862,17.62587 0,9.75828 -7.92792,17.6862 -17.6862,17.6862 -9.75831,0 -17.62585,-7.92792 -17.62585,-17.6862 0,-9.75829 7.86754,-17.62587 17.62585,-17.62587 z m -80.88576,71.3485 0,32.83714 165.45365,0 0,-32.83714 -165.45364,0 z m 159.96064,49.79913 -155.07128,0.1811 77.44511,48.1088 77.62617,-48.2899 z"
       id="rect3103" />
  </g>
</svg>
